# This file uses centimeters as units for non-parametric coordinates.

v -0.500000 -0.500000 0.500000
v -0.166667 -0.500000 0.500000
v 0.166667 -0.500000 0.500000
v 0.500000 -0.500000 0.500000
v -0.500000 -0.166667 0.500000
v -0.166667 -0.166667 0.500000
v 0.166667 -0.166667 0.500000
v 0.500000 -0.166667 0.500000
v -0.500000 0.166667 0.500000
v -0.166667 0.166667 0.500000
v 0.166667 0.166667 0.500000
v 0.500000 0.166667 0.500000
v -0.500000 0.500000 0.500000
v -0.166667 0.500000 0.500000
v 0.166667 0.500000 0.500000
v 0.500000 0.500000 0.500000
v -0.500000 0.500000 0.166667
v -0.166667 0.500000 0.166667
v 0.166667 0.500000 0.166667
v 0.500000 0.500000 0.166667
v -0.500000 0.500000 -0.166667
v -0.166667 0.500000 -0.166667
v 0.166667 0.500000 -0.166667
v 0.500000 0.500000 -0.166667
v -0.500000 0.500000 -0.500000
v -0.166667 0.500000 -0.500000
v 0.166667 0.500000 -0.500000
v 0.500000 0.500000 -0.500000
v -0.500000 0.166667 -0.500000
v -0.166667 0.166667 -0.500000
v 0.166667 0.166667 -0.500000
v 0.500000 0.166667 -0.500000
v -0.500000 -0.166667 -0.500000
v -0.166667 -0.166667 -0.500000
v 0.166667 -0.166667 -0.500000
v 0.500000 -0.166667 -0.500000
v -0.500000 -0.500000 -0.500000
v -0.166667 -0.500000 -0.500000
v 0.166667 -0.500000 -0.500000
v 0.500000 -0.500000 -0.500000
v -0.500000 -0.500000 -0.166667
v -0.166667 -0.500000 -0.166667
v 0.166667 -0.500000 -0.166667
v 0.500000 -0.500000 -0.166667
v -0.500000 -0.500000 0.166667
v -0.166667 -0.500000 0.166667
v 0.166667 -0.500000 0.166667
v 0.500000 -0.500000 0.166667
v 0.500000 -0.166667 -0.166667
v 0.500000 -0.166667 0.166667
v 0.500000 0.166667 -0.166667
v 0.500000 0.166667 0.166667
v -0.500000 -0.166667 -0.166667
v -0.500000 -0.166667 0.166667
v -0.500000 0.166667 -0.166667
v -0.500000 0.166667 0.166667
vt 0.375000 0.000000
vt 0.458333 0.000000
vt 0.541667 0.000000
vt 0.625000 0.000000
vt 0.375000 0.083333
vt 0.458333 0.083333
vt 0.541667 0.083333
vt 0.625000 0.083333
vt 0.375000 0.166667
vt 0.458333 0.166667
vt 0.541667 0.166667
vt 0.625000 0.166667
vt 0.375000 0.250000
vt 0.458333 0.250000
vt 0.541667 0.250000
vt 0.625000 0.250000
vt 0.375000 0.333333
vt 0.458333 0.333333
vt 0.541667 0.333333
vt 0.625000 0.333333
vt 0.375000 0.416667
vt 0.458333 0.416667
vt 0.541667 0.416667
vt 0.625000 0.416667
vt 0.375000 0.500000
vt 0.458333 0.500000
vt 0.541667 0.500000
vt 0.625000 0.500000
vt 0.375000 0.583333
vt 0.458333 0.583333
vt 0.541667 0.583333
vt 0.625000 0.583333
vt 0.375000 0.666667
vt 0.458333 0.666667
vt 0.541667 0.666667
vt 0.625000 0.666667
vt 0.375000 0.750000
vt 0.458333 0.750000
vt 0.541667 0.750000
vt 0.625000 0.750000
vt 0.375000 0.833333
vt 0.458333 0.833333
vt 0.541667 0.833333
vt 0.625000 0.833333
vt 0.375000 0.916667
vt 0.458333 0.916667
vt 0.541667 0.916667
vt 0.625000 0.916667
vt 0.375000 1.000000
vt 0.458333 1.000000
vt 0.541667 1.000000
vt 0.625000 1.000000
vt 0.875000 0.000000
vt 0.791667 0.000000
vt 0.708333 0.000000
vt 0.875000 0.083333
vt 0.791667 0.083333
vt 0.708333 0.083333
vt 0.875000 0.166667
vt 0.791667 0.166667
vt 0.708333 0.166667
vt 0.875000 0.250000
vt 0.791667 0.250000
vt 0.708333 0.250000
vt 0.125000 0.000000
vt 0.208333 0.000000
vt 0.291667 0.000000
vt 0.125000 0.083333
vt 0.208333 0.083333
vt 0.291667 0.083333
vt 0.125000 0.166667
vt 0.208333 0.166667
vt 0.291667 0.166667
vt 0.125000 0.250000
vt 0.208333 0.250000
vt 0.291667 0.250000
vn 0.000000 0.000000 1.000000
vn 0.000000 0.000000 1.000000
vn 0.000000 0.000000 1.000000
vn 0.000000 0.000000 1.000000
vn 0.000000 0.000000 1.000000
vn 0.000000 0.000000 1.000000
vn 0.000000 0.000000 1.000000
vn 0.000000 0.000000 1.000000
vn 0.000000 0.000000 1.000000
vn 0.000000 0.000000 1.000000
vn 0.000000 0.000000 1.000000
vn 0.000000 0.000000 1.000000
vn 0.000000 0.000000 1.000000
vn 0.000000 0.000000 1.000000
vn 0.000000 0.000000 1.000000
vn 0.000000 0.000000 1.000000
vn 0.000000 1.000000 0.000000
vn 0.000000 1.000000 0.000000
vn 0.000000 1.000000 0.000000
vn 0.000000 1.000000 0.000000
vn 0.000000 1.000000 0.000000
vn 0.000000 1.000000 0.000000
vn 0.000000 1.000000 0.000000
vn 0.000000 1.000000 0.000000
vn 0.000000 1.000000 0.000000
vn 0.000000 1.000000 0.000000
vn 0.000000 1.000000 0.000000
vn 0.000000 1.000000 0.000000
vn 0.000000 1.000000 0.000000
vn 0.000000 1.000000 0.000000
vn 0.000000 1.000000 0.000000
vn 0.000000 1.000000 0.000000
vn 0.000000 0.000000 -1.000000
vn 0.000000 0.000000 -1.000000
vn 0.000000 0.000000 -1.000000
vn 0.000000 0.000000 -1.000000
vn 0.000000 0.000000 -1.000000
vn 0.000000 0.000000 -1.000000
vn 0.000000 0.000000 -1.000000
vn 0.000000 0.000000 -1.000000
vn 0.000000 0.000000 -1.000000
vn 0.000000 0.000000 -1.000000
vn 0.000000 0.000000 -1.000000
vn 0.000000 0.000000 -1.000000
vn 0.000000 0.000000 -1.000000
vn 0.000000 0.000000 -1.000000
vn 0.000000 0.000000 -1.000000
vn 0.000000 0.000000 -1.000000
vn 0.000000 -1.000000 0.000000
vn 0.000000 -1.000000 0.000000
vn 0.000000 -1.000000 0.000000
vn 0.000000 -1.000000 0.000000
vn 0.000000 -1.000000 0.000000
vn 0.000000 -1.000000 0.000000
vn 0.000000 -1.000000 0.000000
vn 0.000000 -1.000000 0.000000
vn 0.000000 -1.000000 0.000000
vn 0.000000 -1.000000 0.000000
vn 0.000000 -1.000000 0.000000
vn 0.000000 -1.000000 0.000000
vn 0.000000 -1.000000 0.000000
vn 0.000000 -1.000000 0.000000
vn 0.000000 -1.000000 0.000000
vn 0.000000 -1.000000 0.000000
vn 1.000000 0.000000 0.000000
vn 1.000000 0.000000 0.000000
vn 1.000000 0.000000 0.000000
vn 1.000000 0.000000 0.000000
vn 1.000000 0.000000 0.000000
vn 1.000000 0.000000 0.000000
vn 1.000000 0.000000 0.000000
vn 1.000000 0.000000 0.000000
vn 1.000000 0.000000 0.000000
vn 1.000000 0.000000 0.000000
vn 1.000000 0.000000 0.000000
vn 1.000000 0.000000 0.000000
vn 1.000000 0.000000 0.000000
vn 1.000000 0.000000 0.000000
vn 1.000000 0.000000 0.000000
vn 1.000000 0.000000 0.000000
vn -1.000000 0.000000 0.000000
vn -1.000000 0.000000 0.000000
vn -1.000000 0.000000 0.000000
vn -1.000000 0.000000 0.000000
vn -1.000000 0.000000 0.000000
vn -1.000000 0.000000 0.000000
vn -1.000000 0.000000 0.000000
vn -1.000000 0.000000 0.000000
vn -1.000000 0.000000 0.000000
vn -1.000000 0.000000 0.000000
vn -1.000000 0.000000 0.000000
vn -1.000000 0.000000 0.000000
vn -1.000000 0.000000 0.000000
vn -1.000000 0.000000 0.000000
vn -1.000000 0.000000 0.000000
vn -1.000000 0.000000 0.000000
f 1/1/1 2/2/2 6/6/3 5/5/4
f 2/2/2 3/3/5 7/7/6 6/6/3
f 3/3/5 4/4/7 8/8/8 7/7/6
f 5/5/4 6/6/3 10/10/9 9/9/10
f 6/6/3 7/7/6 11/11/11 10/10/9
f 7/7/6 8/8/8 12/12/12 11/11/11
f 9/9/10 10/10/9 14/14/13 13/13/14
f 10/10/9 11/11/11 15/15/15 14/14/13
f 11/11/11 12/12/12 16/16/16 15/15/15
f 13/13/17 14/14/18 18/18/19 17/17/20
f 14/14/18 15/15/21 19/19/22 18/18/19
f 15/15/21 16/16/23 20/20/24 19/19/22
f 17/17/20 18/18/19 22/22/25 21/21/26
f 18/18/19 19/19/22 23/23/27 22/22/25
f 19/19/22 20/20/24 24/24/28 23/23/27
f 21/21/26 22/22/25 26/26/29 25/25/30
f 22/22/25 23/23/27 27/27/31 26/26/29
f 23/23/27 24/24/28 28/28/32 27/27/31
f 25/25/33 26/26/34 30/30/35 29/29/36
f 26/26/34 27/27/37 31/31/38 30/30/35
f 27/27/37 28/28/39 32/32/40 31/31/38
f 29/29/36 30/30/35 34/34/41 33/33/42
f 30/30/35 31/31/38 35/35/43 34/34/41
f 31/31/38 32/32/40 36/36/44 35/35/43
f 33/33/42 34/34/41 38/38/45 37/37/46
f 34/34/41 35/35/43 39/39/47 38/38/45
f 35/35/43 36/36/44 40/40/48 39/39/47
f 37/37/49 38/38/50 42/42/51 41/41/52
f 38/38/50 39/39/53 43/43/54 42/42/51
f 39/39/53 40/40/55 44/44/56 43/43/54
f 41/41/52 42/42/51 46/46/57 45/45/58
f 42/42/51 43/43/54 47/47/59 46/46/57
f 43/43/54 44/44/56 48/48/60 47/47/59
f 45/45/58 46/46/57 2/50/61 1/49/62
f 46/46/57 47/47/59 3/51/63 2/50/61
f 47/47/59 48/48/60 4/52/64 3/51/63
f 44/54/65 40/53/66 36/56/67 49/57/68
f 48/55/69 44/54/65 49/57/68 50/58/70
f 4/4/71 48/55/69 50/58/70 8/8/72
f 49/57/68 36/56/67 32/59/73 51/60/74
f 50/58/70 49/57/68 51/60/74 52/61/75
f 8/8/72 50/58/70 52/61/75 12/12/76
f 51/60/74 32/59/73 28/62/77 24/63/78
f 52/61/75 51/60/74 24/63/78 20/64/79
f 12/12/76 52/61/75 20/64/79 16/16/80
f 37/65/81 41/66/82 53/69/83 33/68/84
f 41/66/82 45/67/85 54/70/86 53/69/83
f 45/67/85 1/1/87 5/5/88 54/70/86
f 33/68/84 53/69/83 55/72/89 29/71/90
f 53/69/83 54/70/86 56/73/91 55/72/89
f 54/70/86 5/5/88 9/9/92 56/73/91
f 29/71/90 55/72/89 21/75/93 25/74/94
f 55/72/89 56/73/91 17/76/95 21/75/93
f 56/73/91 9/9/92 13/13/96 17/76/95
v -0.500000 -0.500000 0.500000
v -0.166667 -0.500000 0.500000
v 0.166667 -0.500000 0.500000
v 0.500000 -0.500000 0.500000
v -0.500000 -0.166667 0.500000
v -0.166667 -0.166667 0.500000
v 0.166667 -0.166667 0.500000
v 0.500000 -0.166667 0.500000
v -0.500000 0.166667 0.500000
v -0.166667 0.166667 0.500000
v 0.166667 0.166667 0.500000
v 0.500000 0.166667 0.500000
v -0.500000 0.500000 0.500000
v -0.166667 0.500000 0.500000
v 0.166667 0.500000 0.500000
v 0.500000 0.500000 0.500000
v -0.500000 0.500000 0.166667
v -0.166667 0.500000 0.166667
v 0.166667 0.500000 0.166667
v 0.500000 0.500000 0.166667
v -0.500000 0.500000 -0.166667
v -0.166667 0.500000 -0.166667
v 0.166667 0.500000 -0.166667
v 0.500000 0.500000 -0.166667
v -0.500000 0.500000 -0.500000
v -0.166667 0.500000 -0.500000
v 0.166667 0.500000 -0.500000
v 0.500000 0.500000 -0.500000
v -0.500000 0.166667 -0.500000
v -0.166667 0.166667 -0.500000
v 0.166667 0.166667 -0.500000
v 0.500000 0.166667 -0.500000
v -0.500000 -0.166667 -0.500000
v -0.166667 -0.166667 -0.500000
v 0.166667 -0.166667 -0.500000
v 0.500000 -0.166667 -0.500000
v -0.500000 -0.500000 -0.500000
v -0.166667 -0.500000 -0.500000
v 0.166667 -0.500000 -0.500000
v 0.500000 -0.500000 -0.500000
v -0.500000 -0.500000 -0.166667
v -0.166667 -0.500000 -0.166667
v 0.166667 -0.500000 -0.166667
v 0.500000 -0.500000 -0.166667
v -0.500000 -0.500000 0.166667
v -0.166667 -0.500000 0.166667
v 0.166667 -0.500000 0.166667
v 0.500000 -0.500000 0.166667
v 0.500000 -0.166667 -0.166667
v 0.500000 -0.166667 0.166667
v 0.500000 0.166667 -0.166667
v 0.500000 0.166667 0.166667
v -0.500000 -0.166667 -0.166667
v -0.500000 -0.166667 0.166667
v -0.500000 0.166667 -0.166667
v -0.500000 0.166667 0.166667
vt 0.375000 0.000000
vt 0.458333 0.000000
vt 0.541667 0.000000
vt 0.625000 0.000000
vt 0.375000 0.083333
vt 0.458333 0.083333
vt 0.541667 0.083333
vt 0.625000 0.083333
vt 0.375000 0.166667
vt 0.458333 0.166667
vt 0.541667 0.166667
vt 0.625000 0.166667
vt 0.375000 0.250000
vt 0.458333 0.250000
vt 0.541667 0.250000
vt 0.625000 0.250000
vt 0.375000 0.333333
vt 0.458333 0.333333
vt 0.541667 0.333333
vt 0.625000 0.333333
vt 0.375000 0.416667
vt 0.458333 0.416667
vt 0.541667 0.416667
vt 0.625000 0.416667
vt 0.375000 0.500000
vt 0.458333 0.500000
vt 0.541667 0.500000
vt 0.625000 0.500000
vt 0.375000 0.583333
vt 0.458333 0.583333
vt 0.541667 0.583333
vt 0.625000 0.583333
vt 0.375000 0.666667
vt 0.458333 0.666667
vt 0.541667 0.666667
vt 0.625000 0.666667
vt 0.375000 0.750000
vt 0.458333 0.750000
vt 0.541667 0.750000
vt 0.625000 0.750000
vt 0.375000 0.833333
vt 0.458333 0.833333
vt 0.541667 0.833333
vt 0.625000 0.833333
vt 0.375000 0.916667
vt 0.458333 0.916667
vt 0.541667 0.916667
vt 0.625000 0.916667
vt 0.375000 1.000000
vt 0.458333 1.000000
vt 0.541667 1.000000
vt 0.625000 1.000000
vt 0.875000 0.000000
vt 0.791667 0.000000
vt 0.708333 0.000000
vt 0.875000 0.083333
vt 0.791667 0.083333
vt 0.708333 0.083333
vt 0.875000 0.166667
vt 0.791667 0.166667
vt 0.708333 0.166667
vt 0.875000 0.250000
vt 0.791667 0.250000
vt 0.708333 0.250000
vt 0.125000 0.000000
vt 0.208333 0.000000
vt 0.291667 0.000000
vt 0.125000 0.083333
vt 0.208333 0.083333
vt 0.291667 0.083333
vt 0.125000 0.166667
vt 0.208333 0.166667
vt 0.291667 0.166667
vt 0.125000 0.250000
vt 0.208333 0.250000
vt 0.291667 0.250000
vn 0.000000 0.000000 1.000000
vn 0.000000 0.000000 1.000000
vn 0.000000 0.000000 1.000000
vn 0.000000 0.000000 1.000000
vn 0.000000 0.000000 1.000000
vn 0.000000 0.000000 1.000000
vn 0.000000 0.000000 1.000000
vn 0.000000 0.000000 1.000000
vn 0.000000 0.000000 1.000000
vn 0.000000 0.000000 1.000000
vn 0.000000 0.000000 1.000000
vn 0.000000 0.000000 1.000000
vn 0.000000 0.000000 1.000000
vn 0.000000 0.000000 1.000000
vn 0.000000 0.000000 1.000000
vn 0.000000 0.000000 1.000000
vn 0.000000 1.000000 0.000000
vn 0.000000 1.000000 0.000000
vn 0.000000 1.000000 0.000000
vn 0.000000 1.000000 0.000000
vn 0.000000 1.000000 0.000000
vn 0.000000 1.000000 0.000000
vn 0.000000 1.000000 0.000000
vn 0.000000 1.000000 0.000000
vn 0.000000 1.000000 0.000000
vn 0.000000 1.000000 0.000000
vn 0.000000 1.000000 0.000000
vn 0.000000 1.000000 0.000000
vn 0.000000 1.000000 0.000000
vn 0.000000 1.000000 0.000000
vn 0.000000 1.000000 0.000000
vn 0.000000 1.000000 0.000000
vn 0.000000 0.000000 -1.000000
vn 0.000000 0.000000 -1.000000
vn 0.000000 0.000000 -1.000000
vn 0.000000 0.000000 -1.000000
vn 0.000000 0.000000 -1.000000
vn 0.000000 0.000000 -1.000000
vn 0.000000 0.000000 -1.000000
vn 0.000000 0.000000 -1.000000
vn 0.000000 0.000000 -1.000000
vn 0.000000 0.000000 -1.000000
vn 0.000000 0.000000 -1.000000
vn 0.000000 0.000000 -1.000000
vn 0.000000 0.000000 -1.000000
vn 0.000000 0.000000 -1.000000
vn 0.000000 0.000000 -1.000000
vn 0.000000 0.000000 -1.000000
vn 0.000000 -1.000000 0.000000
vn 0.000000 -1.000000 0.000000
vn 0.000000 -1.000000 0.000000
vn 0.000000 -1.000000 0.000000
vn 0.000000 -1.000000 0.000000
vn 0.000000 -1.000000 0.000000
vn 0.000000 -1.000000 0.000000
vn 0.000000 -1.000000 0.000000
vn 0.000000 -1.000000 0.000000
vn 0.000000 -1.000000 0.000000
vn 0.000000 -1.000000 0.000000
vn 0.000000 -1.000000 0.000000
vn 0.000000 -1.000000 0.000000
vn 0.000000 -1.000000 0.000000
vn 0.000000 -1.000000 0.000000
vn 0.000000 -1.000000 0.000000
vn 1.000000 0.000000 0.000000
vn 1.000000 0.000000 0.000000
vn 1.000000 0.000000 0.000000
vn 1.000000 0.000000 0.000000
vn 1.000000 0.000000 0.000000
vn 1.000000 0.000000 0.000000
vn 1.000000 0.000000 0.000000
vn 1.000000 0.000000 0.000000
vn 1.000000 0.000000 0.000000
vn 1.000000 0.000000 0.000000
vn 1.000000 0.000000 0.000000
vn 1.000000 0.000000 0.000000
vn 1.000000 0.000000 0.000000
vn 1.000000 0.000000 0.000000
vn 1.000000 0.000000 0.000000
vn 1.000000 0.000000 0.000000
vn -1.000000 0.000000 0.000000
vn -1.000000 0.000000 0.000000
vn -1.000000 0.000000 0.000000
vn -1.000000 0.000000 0.000000
vn -1.000000 0.000000 0.000000
vn -1.000000 0.000000 0.000000
vn -1.000000 0.000000 0.000000
vn -1.000000 0.000000 0.000000
vn -1.000000 0.000000 0.000000
vn -1.000000 0.000000 0.000000
vn -1.000000 0.000000 0.000000
vn -1.000000 0.000000 0.000000
vn -1.000000 0.000000 0.000000
vn -1.000000 0.000000 0.000000
vn -1.000000 0.000000 0.000000
vn -1.000000 0.000000 0.000000
f 57/77/97 58/78/98 62/82/99 61/81/100
f 58/78/98 59/79/101 63/83/102 62/82/99
f 59/79/101 60/80/103 64/84/104 63/83/102
f 61/81/100 62/82/99 66/86/105 65/85/106
f 62/82/99 63/83/102 67/87/107 66/86/105
f 63/83/102 64/84/104 68/88/108 67/87/107
f 65/85/106 66/86/105 70/90/109 69/89/110
f 66/86/105 67/87/107 71/91/111 70/90/109
f 67/87/107 68/88/108 72/92/112 71/91/111
f 69/89/113 70/90/114 74/94/115 73/93/116
f 70/90/114 71/91/117 75/95/118 74/94/115
f 71/91/117 72/92/119 76/96/120 75/95/118
f 73/93/116 74/94/115 78/98/121 77/97/122
f 74/94/115 75/95/118 79/99/123 78/98/121
f 75/95/118 76/96/120 80/100/124 79/99/123
f 77/97/122 78/98/121 82/102/125 81/101/126
f 78/98/121 79/99/123 83/103/127 82/102/125
f 79/99/123 80/100/124 84/104/128 83/103/127
f 81/101/129 82/102/130 86/106/131 85/105/132
f 82/102/130 83/103/133 87/107/134 86/106/131
f 83/103/133 84/104/135 88/108/136 87/107/134
f 85/105/132 86/106/131 90/110/137 89/109/138
f 86/106/131 87/107/134 91/111/139 90/110/137
f 87/107/134 88/108/136 92/112/140 91/111/139
f 89/109/138 90/110/137 94/114/141 93/113/142
f 90/110/137 91/111/139 95/115/143 94/114/141
f 91/111/139 92/112/140 96/116/144 95/115/143
f 93/113/145 94/114/146 98/118/147 97/117/148
f 94/114/146 95/115/149 99/119/150 98/118/147
f 95/115/149 96/116/151 100/120/152 99/119/150
f 97/117/148 98/118/147 102/122/153 101/121/154
f 98/118/147 99/119/150 103/123/155 102/122/153
f 99/119/150 100/120/152 104/124/156 103/123/155
f 101/121/154 102/122/153 58/126/157 57/125/158
f 102/122/153 103/123/155 59/127/159 58/126/157
f 103/123/155 104/124/156 60/128/160 59/127/159
f 100/130/161 96/129/162 92/132/163 105/133/164
f 104/131/165 100/130/161 105/133/164 106/134/166
f 60/80/167 104/131/165 106/134/166 64/84/168
f 105/133/164 92/132/163 88/135/169 107/136/170
f 106/134/166 105/133/164 107/136/170 108/137/171
f 64/84/168 106/134/166 108/137/171 68/88/172
f 107/136/170 88/135/169 84/138/173 80/139/174
f 108/137/171 107/136/170 80/139/174 76/140/175
f 68/88/172 108/137/171 76/140/175 72/92/176
f 93/141/177 97/142/178 109/145/179 89/144/180
f 97/142/178 101/143/181 110/146/182 109/145/179
f 101/143/181 57/77/183 61/81/184 110/146/182
f 89/144/180 109/145/179 111/148/185 85/147/186
f 109/145/179 110/146/182 112/149/187 111/148/185
f 110/146/182 61/81/184 65/85/188 112/149/187
f 85/147/186 111/148/185 77/151/189 81/150/190
f 111/148/185 112/149/187 73/152/191 77/151/189
f 112/149/187 65/85/188 69/89/192 73/152/191
